<?xml version="1.0" encoding="UTF-8"?> <svg xmlns="http://www.w3.org/2000/svg" width="24" height="24" viewBox="0 0 24 24" fill="none"><path d="M22.9367 14.124L22.6076 13.9214L22.9367 13.7188C23.6203 13.3136 24 12.7312 24 12.0981C24 11.4904 23.6203 10.9079 22.9367 10.4774L22.6076 10.2749L22.9367 10.0723C23.5949 9.66711 24 8.95806 24 8.17304C24 7.38802 23.5949 6.67898 22.9367 6.27381L13.1392 0.32287C12.4304 -0.107623 11.5443 -0.107623 10.8354 0.32287L1.06329 6.34978C0.405063 6.75495 0 7.43867 0 8.22369C0 9.0087 0.405063 9.71775 1.06329 10.1229L1.39241 10.3255L1.06329 10.5281C0.379747 10.9333 0 11.5157 0 12.1235C0 12.7312 0.379747 13.3136 1.06329 13.7441L1.39241 13.9467L1.06329 14.1493C0.379747 14.5545 0 15.1875 0 15.8966C0 16.6056 0.379747 17.2387 1.06329 17.6439L10.8354 23.6708C11.1899 23.8987 11.5949 24 12 24C12.4051 24 12.8101 23.8987 13.1646 23.6708L22.9367 17.6439C23.6203 17.2387 24 16.6056 24 15.8966C24 15.1875 23.5949 14.5545 22.9367 14.124ZM1.92405 15.5421L2.96203 14.909L10.8608 19.771C11.5696 20.2015 12.4557 20.2015 13.1646 19.771L21.0633 14.909L22.1013 15.5421C22.2785 15.6434 22.3797 15.77 22.3797 15.8966C22.3797 16.0232 22.2785 16.1498 22.1013 16.2511L12.2785 22.2527C12.1013 22.354 11.8734 22.354 11.6962 22.2527L1.92405 16.2258C1.74684 16.1245 1.64557 15.9979 1.64557 15.8713C1.64557 15.7447 1.74684 15.6434 1.92405 15.5421ZM22.0759 8.70483L12.2785 14.7317C12.1013 14.833 11.8734 14.833 11.6962 14.7317L1.92405 8.70483C1.74684 8.60353 1.64557 8.42627 1.64557 8.22369C1.64557 8.0211 1.74684 7.84384 1.92405 7.74255L11.6962 1.71564C11.7975 1.665 11.8987 1.63967 12 1.63967C12.1013 1.63967 12.2025 1.665 12.3038 1.71564L22.1013 7.74255C22.2785 7.84384 22.3797 8.0211 22.3797 8.22369C22.3544 8.42627 22.2532 8.60353 22.0759 8.70483ZM11.6962 18.3529L1.92405 12.326C1.77215 12.2247 1.6962 12.1488 1.67089 12.1235C1.6962 12.0728 1.77215 11.9968 1.92405 11.9209L2.96203 11.2878L10.8608 16.1498C11.5696 16.5803 12.4557 16.5803 13.1646 16.1498L21.0633 11.2878L22.1013 11.9209C22.2532 12.0222 22.3291 12.0981 22.3544 12.1235C22.3291 12.1741 22.2532 12.2501 22.1013 12.326C21.3924 12.7565 12.6329 18.1504 12.3291 18.3529C12.1013 18.4796 11.8734 18.4796 11.6962 18.3529Z" fill="#092433"></path></svg> 