<?xml version="1.0" encoding="UTF-8"?> <svg xmlns="http://www.w3.org/2000/svg" width="24" height="24" viewBox="0 0 24 24" fill="none"><path d="M20.005 3.02267C22.2144 3.02267 24 4.80605 24 7.0126V9.00755C24 11.2141 22.2144 12.9975 20.005 12.9975H2.99621C2.45145 12.9975 1.99748 13.4509 1.99748 13.995V17.9849C1.99748 18.529 2.45145 18.9824 2.99621 18.9824H15.0113V20.9773H3.99496C1.78563 20.9773 0 19.194 0 16.9874V14.9924C0 12.7859 1.78563 11.0025 3.99496 11.0025H21.0038C21.5485 11.0025 22.0025 10.5491 22.0025 10.005V6.01512C22.0025 5.47104 21.5485 5.01762 21.0038 5.01762H8.98865V3.02267H20.005ZM22.0025 18.4081C22.0025 18.1965 21.8209 18.0151 21.6091 18.0151H18.401C18.1892 18.0151 18.0076 18.1965 18.0076 18.4081V21.6121C18.0076 21.8237 18.1892 22.005 18.401 22.005H21.6091C21.8209 22.005 22.0025 21.8237 22.0025 21.6121V18.4081ZM21.0038 16.0201C22.6683 16.0201 24 17.3501 24 19.0126V21.0075C24 22.67 22.6683 24 21.0038 24H19.0063C17.3417 24 16.0101 22.67 16.0101 21.0075V19.0126C16.0101 17.3501 17.3417 16.0201 19.0063 16.0201H21.0038ZM5.99244 2.41814C5.99244 2.20655 5.81084 2.02519 5.59899 2.02519H2.39092C2.17906 2.02519 1.99748 2.20655 1.99748 2.41814V5.62216C1.99748 5.83374 2.17906 6.01512 2.39092 6.01512H5.59899C5.81084 6.01512 5.99244 5.83374 5.99244 5.62216V2.41814ZM4.99369 0C6.65826 0 7.98991 1.32998 7.98991 2.99245V4.9874C7.98991 6.64987 6.65826 7.97985 4.99369 7.97985H2.99621C1.33165 7.97985 0 6.64987 0 4.9874V3.02267C0 1.3602 1.33165 0.0302193 2.99621 0.0302193H4.99369V0Z" fill="#092433"></path></svg> 