<?xml version="1.0" encoding="UTF-8"?> <svg xmlns="http://www.w3.org/2000/svg" width="24" height="24" viewBox="0 0 24 24" fill="none"><path d="M7.38323 10.3427L5.99896 11.7188L10.3039 16.0284C10.6903 16.4155 11.32 16.4185 11.7094 16.0314L18.7799 9.03319L17.3591 7.62085L11.0067 13.9083L7.38323 10.3427Z" fill="#092433"></path><path fill-rule="evenodd" clip-rule="evenodd" d="M20.3011 4.31226L14.1951 0.616577C12.8351 -0.206029 11.1284 -0.206029 9.7715 0.619602L3.69593 4.31226C2.43336 5.0774 1.66669 6.43833 1.66669 7.90511V12V16.0949C1.66669 17.5617 2.43336 18.9226 3.69593 19.6877L9.7715 23.3804C11.1284 24.206 12.8382 24.206 14.1951 23.3834L20.3011 19.6847C21.5636 18.9196 22.3334 17.5556 22.3334 16.0888V12.003V7.91116C22.3334 6.44136 21.5636 5.0774 20.3011 4.31226ZM20.2859 16.5485C20.2859 16.8903 20.1124 17.2108 19.8234 17.3984L12.5492 22.1556C12.2054 22.3794 11.7642 22.3794 11.4205 22.1556L4.17358 17.4014C3.8876 17.2139 3.71419 16.8933 3.71419 16.5546V12.003V7.45147C3.71419 7.10973 3.8876 6.79218 4.17358 6.60467L11.4205 1.84746C11.7612 1.62367 12.2054 1.62367 12.5492 1.84746L19.8265 6.60467C20.1155 6.79218 20.2889 7.11275 20.2889 7.45449V12.003V16.5485H20.2859Z" fill="#092433"></path></svg> 